{"accessors" : [{"bufferView" : 0, "byteOffset" : 0, "componentType" : 5123, "count" : 26532, "type" : "SCALAR", "max" : [5569], "min" : [0]}, {"bufferView" : 1, "byteOffset" : 0, "componentType" : 5126, "count" : 5570, "type" : "VEC3", "max" : [126.863716125488, 102.629539489746, 52.5541343688965], "min" : [113.146827697754, 53.3513450622559, 0]}, {"bufferView" : 1, "byteOffset" : 12, "componentType" : 5126, "count" : 5570, "type" : "VEC3", "max" : [1.00000441074371, 1.00000441074371, 1.00000441074371], "min" : [-1.00000441074371, -1.00000441074371, -1.00000441074371]}], "asset" : {"generator" : "Aspose.3D 20.2.1", "version" : "2.0"}, "buffers" : [{"uri" : "buffer.bin", "byteLength" : 186752}], "bufferViews" : [{"buffer" : 0, "byteOffset" : 0, "byteLength" : 53064, "target" : 34963}, {"buffer" : 0, "byteOffset" : 53068, "byteLength" : 133680, "byteStride" : 24, "target" : 34962}], "meshes" : [{"primitives" : [{"attributes" : {"POSITION" : 1, "NORMAL" : 2}, "indices" : 0, "mode" : 4}]}], "nodes" : [{"mesh" : 0, "name" : ""}], "scene" : 0, "scenes" : [{"nodes" : [0]}]}